<svg width="49" height="49" viewBox="0 0 49 49" fill="none" xmlns="http://www.w3.org/2000/svg">
<circle cx="24.0833" cy="24.0833" r="16.0294" transform="rotate(45 24.0833 24.0833)" stroke="white" stroke-width="2"/>
<g clip-path="url(#clip0_752_2)">
<path d="M24.0822 12.8581C24.471 12.8581 24.7863 13.1733 24.7863 13.5622L24.7863 34.6248C24.7863 35.0136 24.471 35.3289 24.0822 35.3289C23.6933 35.3289 23.378 35.0137 23.3781 34.6248L23.378 13.5622C23.378 13.1733 23.6933 12.8581 24.0822 12.8581Z" fill="white"/>
<path d="M35.3187 24.0749C35.3187 23.6861 35.0034 23.3708 34.6146 23.3708H13.5519C13.1631 23.3708 12.8478 23.6861 12.8478 24.0749C12.8478 24.4638 13.1631 24.779 13.552 24.779H34.6146C35.0034 24.779 35.3187 24.4638 35.3187 24.0749Z" fill="white"/>
</g>
<defs>
<clipPath id="clip0_752_2">
<rect width="19.0329" height="19.0329" fill="white" transform="translate(24.0833 10.625) rotate(45)"/>
</clipPath>
</defs>
</svg>
