<svg width="18" height="18" viewBox="0 0 18 18" fill="none" xmlns="http://www.w3.org/2000/svg">
<path d="M17.7365 3.20834L14.7915 0.263511C14.6228 0.0947848 14.3939 0 14.1552 0C13.9165 0 13.6877 0.0947848 13.5189 0.263511L1.7364 12.0455C1.63733 12.1439 1.56272 12.2641 1.51859 12.3965L0.0461192 16.8156C0.00107725 16.9508 -0.0112019 17.0948 0.0102926 17.2357C0.0317871 17.3766 0.0864406 17.5104 0.169754 17.626C0.253067 17.7417 0.362657 17.8359 0.489503 17.9009C0.616349 17.9659 0.756823 17.9999 0.899361 18C0.996081 18 1.09215 17.9842 1.18377 17.9532L5.60299 16.4808C5.73543 16.4367 5.85566 16.362 5.95401 16.263L17.7365 4.48096C17.9052 4.31218 18 4.0833 18 3.84465C18 3.606 17.9052 3.37712 17.7365 3.20834ZM4.83165 14.8401L2.32233 15.6771L3.15937 13.1678L11.2085 5.11816L12.8816 6.79128L4.83165 14.8401ZM14.1552 5.51867L12.4811 3.84465L14.1552 2.17243L15.8275 3.84465L14.1552 5.51867Z" fill="white"/>
</svg>
