<svg width="112" height="36" viewBox="0 0 112 36" fill="none" xmlns="http://www.w3.org/2000/svg">
<g id="Group 76">
<path id="Vector" d="M80.1022 0H6.43392C2.88056 0 0 2.89107 0 6.4574V29.5426C0 33.1089 2.88056 36 6.43392 36H80.1022C83.6555 36 86.5362 33.1089 86.5362 29.5426V6.4574C86.5362 2.89107 83.6555 0 80.1022 0Z" fill="#5FE0D8"/>
<path id="Vector_2" d="M43.4036 8.70137C46.7071 8.70137 49.7746 10.9117 49.7746 14.8851C49.7746 18.8585 46.7071 21.0689 43.4036 21.0689H40.4671V27.1211H36.7441V8.70137H43.4036ZM43.4036 17.7007C45.134 17.7007 46.3138 16.6482 46.3138 14.8851C46.3138 13.1221 45.134 12.0696 43.4036 12.0696H40.4671V17.7007H43.4036ZM62.3357 23.7529H64.5642V27.1211H59.8187L57.0134 20.5953H54.3391V27.1211H50.6161V8.70137H58.1932C61.7589 8.70137 64.2758 11.0696 64.2758 14.6483C64.2758 17.306 62.86 19.3059 60.6839 20.1479L62.3357 23.7529ZM54.3391 12.0696V17.2534H57.931C59.4255 17.2534 60.815 16.6219 60.815 14.6483C60.815 12.6485 59.4255 12.0696 57.931 12.0696H54.3391ZM73.8784 27.3842C68.5824 27.3842 64.5972 23.1477 64.5972 17.9112C64.5972 12.6748 68.5824 8.43823 73.8784 8.43823C79.1221 8.43823 83.1073 12.6748 83.1073 17.9112C83.1073 23.1477 79.1221 27.3842 73.8784 27.3842ZM73.8784 23.674C77.0771 23.674 79.5154 21.0689 79.5154 17.9112C79.5154 14.7536 77.0771 12.1485 73.8784 12.1485C70.6536 12.1485 68.1891 14.7536 68.1891 17.9112C68.1891 21.0689 70.6536 23.674 73.8784 23.674Z" fill="white"/>
<path id="Vector_3" d="M21.3389 20.6911C21.0426 20.6335 20.7608 20.8356 20.7103 21.1315C20.2116 24.0037 19.0556 26.0102 17.9067 26.0102C17.6611 26.0102 17.4155 25.9164 17.1624 25.7359C16.9241 25.5555 16.5845 25.606 16.4039 25.8514C16.2233 26.0895 16.281 26.4288 16.5194 26.6091C16.9603 26.934 17.4227 27.0999 17.9067 27.0999C19.6697 27.0999 21.1582 24.8844 21.7723 21.3191C21.8229 21.0232 21.6279 20.7416 21.3316 20.6911H21.3389Z" fill="white"/>
<path id="Vector_4" d="M14.4893 15.0903C14.4893 15.0903 14.5544 15.0975 14.5833 15.0975C14.8434 15.0975 15.0674 14.9099 15.118 14.6501C15.6165 11.7777 16.7725 9.7713 17.9215 9.7713C18.1671 9.7713 18.4127 9.86513 18.6657 10.0455C18.9041 10.226 19.2437 10.1682 19.4243 9.93009C19.6049 9.69192 19.5472 9.35272 19.3086 9.17228C18.8679 8.84752 18.4055 8.68152 17.9215 8.68152C16.1584 8.68152 14.67 10.8972 14.0558 14.4624C14.0052 14.7583 14.2003 15.0398 14.4966 15.0903H14.4893Z" fill="white"/>
<path id="Vector_5" d="M22.8199 16.2532C22.5888 16.0584 22.2491 16.0945 22.054 16.3254C21.859 16.5564 21.895 16.8956 22.1263 17.0904C24.3661 18.9597 25.5294 20.9588 24.9587 21.9548C24.8358 22.164 24.6335 22.33 24.3517 22.4599C24.0771 22.5826 23.9544 22.9002 24.0699 23.1744C24.1566 23.3766 24.3589 23.4993 24.5685 23.4993C24.6407 23.4993 24.7129 23.4847 24.7853 23.4558C25.2838 23.2393 25.6595 22.9145 25.8979 22.5032C26.7795 20.9733 25.6018 18.5844 22.8199 16.2676V16.2532Z" fill="white"/>
<path id="Vector_6" d="M13.0082 19.5296C13.1094 19.6161 13.2322 19.6523 13.3551 19.6523C13.5068 19.6523 13.6658 19.5872 13.7741 19.4574C13.9692 19.2264 13.9331 18.8873 13.7019 18.6924C11.462 16.8231 10.2987 14.824 10.8695 13.828C10.9924 13.6187 11.1947 13.4528 11.4765 13.3228C11.751 13.2002 11.8739 12.8826 11.7582 12.6084C11.6354 12.3341 11.3175 12.2114 11.0429 12.3269C10.5444 12.5434 10.1687 12.8682 9.93021 13.2795C9.04872 14.8096 10.2265 17.1985 13.0082 19.5151V19.5296Z" fill="white"/>
<path id="Vector_7" d="M18.9473 12.8321C18.6655 12.9331 18.521 13.2434 18.622 13.5249C18.7232 13.8064 19.034 13.9507 19.3158 13.8497C22.0542 12.8465 24.3736 12.8393 24.9443 13.8352C25.0672 14.0445 25.1105 14.3044 25.0744 14.6147C25.0383 14.9106 25.2551 15.1776 25.5514 15.2137C25.5729 15.2137 25.5946 15.2137 25.6091 15.2137C25.8837 15.2137 26.1148 15.0116 26.1438 14.7302C26.2017 14.1889 26.1148 13.7053 25.8764 13.2867C24.995 11.7567 22.336 11.5835 18.9328 12.8321H18.9473Z" fill="white"/>
<path id="Vector_8" d="M17.1985 22.2567C17.0974 21.9753 16.7868 21.8309 16.505 21.932C13.7665 22.9352 11.4471 22.9423 10.8763 21.9464C10.7534 21.7372 10.7101 21.4772 10.7462 21.167C10.7824 20.8711 10.5656 20.604 10.2693 20.5679C9.97309 20.5319 9.70575 20.7484 9.66962 21.0443C9.61183 21.5856 9.69853 22.0691 9.93697 22.4877C10.4283 23.3392 11.4688 23.7724 12.8849 23.7724C14.0121 23.7724 15.3705 23.4981 16.8807 22.9495C17.1623 22.8485 17.3069 22.5382 17.2058 22.2567H17.1985Z" fill="white"/>
<path id="Vector_9" d="M23.6942 4.35876H12.1336C7.84887 4.35876 4.36621 7.8374 4.36621 12.1171V23.6644C4.36621 27.9443 7.84887 31.4229 12.1336 31.4229H23.6942C27.979 31.4229 31.4615 27.9443 31.4615 23.6644V12.1171C31.4615 7.8374 27.979 4.35876 23.6942 4.35876ZM30.3777 23.6644C30.3777 27.3452 27.3792 30.3403 23.6942 30.3403H12.1336C8.44858 30.3403 5.45002 27.3452 5.45002 23.6644V12.1171C5.45002 8.43642 8.44858 5.44133 12.1336 5.44133H23.6942C27.3792 5.44133 30.3777 8.43642 30.3777 12.1171V23.6644Z" fill="white"/>
<path id="Vector_10" d="M90.1182 8.70136H93.8411V27.1211H90.1182V8.70136ZM102.064 8.67505C106.941 8.67505 111.398 11.938 111.398 17.8849C111.398 23.8319 106.941 27.1211 102.064 27.1211L99.4689 27.0948V27.1211H95.7459V8.70136H99.4427L102.064 8.67505ZM102.064 23.7529C105.158 23.7529 107.806 21.8057 107.806 17.8849C107.806 13.9641 105.158 12.0432 102.064 12.0432L99.4689 12.0695V23.7266L102.064 23.7529Z" fill="white"/>
</g>
</svg>
