<svg width="186" height="45" viewBox="0 0 186 45" fill="none" xmlns="http://www.w3.org/2000/svg">
<path d="M100.683 0H8.08696C3.62065 0 0 3.61384 0 8.07175V36.9282C0 41.3861 3.62065 45 8.08696 45H100.683C105.149 45 108.77 41.3861 108.77 36.9282V8.07175C108.77 3.61384 105.149 0 100.683 0Z" fill="#9B3795"/>
<path d="M54.5552 10.8768C58.7075 10.8768 62.5631 13.6397 62.5631 18.6065C62.5631 23.5732 58.7075 26.3362 54.5552 26.3362H50.8643V33.9014H46.1848V10.8768H54.5552ZM54.5552 22.126C56.7302 22.126 58.2132 20.8103 58.2132 18.6065C58.2132 16.4027 56.7302 15.087 54.5552 15.087H50.8643V22.126H54.5552ZM78.3515 29.6912H81.1526V33.9014H75.1879L71.6618 25.7441H68.3004V33.9014H63.6209V10.8768H73.1447C77.6265 10.8768 80.7901 13.8371 80.7901 18.3105C80.7901 21.6326 79.0106 24.1324 76.2754 25.185L78.3515 29.6912ZM68.3004 15.087V21.5668H72.8152C74.6936 21.5668 76.4401 20.7774 76.4401 18.3105C76.4401 15.8106 74.6936 15.087 72.8152 15.087H68.3004ZM92.8599 34.2304C86.2031 34.2304 81.1941 28.9347 81.1941 22.3891C81.1941 15.8435 86.2031 10.5479 92.8599 10.5479C99.4508 10.5479 104.46 15.8435 104.46 22.3891C104.46 28.9347 99.4508 34.2304 92.8599 34.2304ZM92.8599 29.5925C96.8803 29.5925 99.9451 26.3362 99.9451 22.3891C99.9451 18.442 96.8803 15.1857 92.8599 15.1857C88.8065 15.1857 85.7088 18.442 85.7088 22.3891C85.7088 26.3362 88.8065 29.5925 92.8599 29.5925Z" fill="white"/>
<path d="M26.8216 25.8639C26.4492 25.7918 26.0952 26.0445 26.0315 26.4143C25.4049 30.0047 23.9517 32.5128 22.5078 32.5128C22.1991 32.5128 21.8902 32.3955 21.5723 32.1699C21.2727 31.9443 20.8457 32.0075 20.6187 32.3142C20.3916 32.6118 20.4644 33.036 20.764 33.2614C21.318 33.6674 21.8993 33.8749 22.5078 33.8749C24.7238 33.8749 26.5945 31.1054 27.3666 26.6488C27.4301 26.2789 27.1849 25.927 26.8125 25.8639H26.8216Z" fill="white"/>
<path d="M18.2124 18.8625C18.2124 18.8625 18.2941 18.8716 18.3305 18.8716C18.6574 18.8716 18.9389 18.637 19.0025 18.3122C19.6292 14.7217 21.0823 12.2138 22.5262 12.2138C22.835 12.2138 23.1439 12.3311 23.4617 12.5566C23.7613 12.7821 24.1883 12.71 24.4154 12.4123C24.6424 12.1146 24.5696 11.6906 24.27 11.465C23.716 11.0591 23.1348 10.8516 22.5262 10.8516C20.3102 10.8516 18.4394 13.6211 17.6675 18.0777C17.6039 18.4476 17.8491 18.7994 18.2215 18.8625H18.2124Z" fill="white"/>
<path d="M28.683 20.3169C28.3925 20.0733 27.9655 20.1184 27.7202 20.4071C27.4752 20.6959 27.5205 21.1198 27.8112 21.3634C30.6265 23.7 32.0886 26.1988 31.3713 27.4438C31.2168 27.7054 30.9625 27.9128 30.6083 28.0753C30.2632 28.2286 30.1089 28.6255 30.2541 28.9684C30.3631 29.221 30.6174 29.3744 30.8808 29.3744C30.9716 29.3744 31.0624 29.3562 31.1534 29.3201C31.7799 29.0495 32.2522 28.6435 32.5518 28.1293C33.6599 26.2169 32.1796 23.2308 28.683 20.3349V20.3169Z" fill="white"/>
<path d="M16.3501 24.412C16.4773 24.5202 16.6317 24.5654 16.7861 24.5654C16.9768 24.5654 17.1766 24.4841 17.3128 24.3218C17.558 24.0331 17.5126 23.6091 17.222 23.3655C14.4066 21.029 12.9445 18.53 13.6619 17.2851C13.8163 17.0235 14.0706 16.816 14.4248 16.6536C14.7699 16.5002 14.9243 16.1033 14.779 15.7605C14.6246 15.4177 14.225 15.2643 13.8799 15.4086C13.2532 15.6793 12.781 16.0852 12.4813 16.5994C11.3733 18.512 12.8537 21.4981 16.3501 24.3939V24.412Z" fill="white"/>
<path d="M23.8152 16.0398C23.461 16.1661 23.2795 16.554 23.4067 16.9058C23.5338 17.2577 23.9242 17.4381 24.2784 17.3118C27.7204 16.0578 30.6358 16.0488 31.3533 17.2938C31.5076 17.5554 31.5621 17.8801 31.5167 18.268C31.4714 18.6379 31.7437 18.9717 32.1161 19.0168C32.1434 19.0168 32.1705 19.0168 32.1887 19.0168C32.5338 19.0168 32.8245 18.7642 32.8607 18.4124C32.9335 17.7358 32.8245 17.1314 32.5247 16.6081C31.4168 14.6956 28.0746 14.4791 23.7971 16.0398H23.8152Z" fill="white"/>
<path d="M21.6175 27.8209C21.4903 27.4692 21.0997 27.2888 20.7455 27.4151C17.3036 28.6691 14.3883 28.678 13.6708 27.4331C13.5165 27.1716 13.4619 26.8467 13.5074 26.4588C13.5528 26.0889 13.2803 25.7552 12.908 25.71C12.5356 25.665 12.1996 25.9356 12.1542 26.3055C12.0815 26.9821 12.1905 27.5865 12.4902 28.1097C13.1078 29.1742 14.4155 29.7156 16.1956 29.7156C17.6124 29.7156 19.3197 29.3727 21.2178 28.687C21.572 28.5607 21.7537 28.1729 21.6266 27.8209H21.6175Z" fill="white"/>
<path d="M29.7822 5.44824H15.2513C9.86573 5.44824 5.48828 9.79653 5.48828 15.1462V29.5803C5.48828 34.9301 9.86573 39.2784 15.2513 39.2784H29.7822C35.1677 39.2784 39.5452 34.9301 39.5452 29.5803V15.1462C39.5452 9.79653 35.1677 5.44824 29.7822 5.44824ZM38.1829 29.5803C38.1829 34.1812 34.414 37.9251 29.7822 37.9251H15.2513C10.6195 37.9251 6.85055 34.1812 6.85055 29.5803V15.1462C6.85055 10.5453 10.6195 6.80145 15.2513 6.80145H29.7822C34.414 6.80145 38.1829 10.5453 38.1829 15.1462V29.5803Z" fill="white"/>
<path d="M121.642 10.8768C125.794 10.8768 129.65 13.6397 129.65 18.6065C129.65 23.5732 125.794 26.3362 121.642 26.3362H117.951V33.9014H113.272V10.8768H121.642ZM121.642 22.126C123.817 22.126 125.3 20.8103 125.3 18.6065C125.3 16.4027 123.817 15.087 121.642 15.087H117.951V22.126H121.642ZM144.839 33.9014L143.126 30.2175H134.492L132.778 33.9014H127.571L138.776 10.5479L150.013 33.9014H144.839ZM136.238 26.402H141.346L138.776 20.9418L136.238 26.402ZM166.209 10.8768L158.366 24.9876V33.9014H153.687V24.9876L145.844 10.8768H150.82L156.027 20.3498L161.233 10.8768H166.209Z" fill="black"/>
</svg>
